<svg version="1.1" xmlns="http://www.w3.org/2000/svg" xmlns:xlink="http://www.w3.org/1999/xlink" width="47.26079" height="85.85916" viewBox="0,0,47.26079,85.85916"><g transform="translate(-217.75163,-138.38929)"><g stroke-miterlimit="10"><path d="M243.52623,186.6539c0,9.04624 -4.83694,16.37966 -10.80361,16.37966c-5.96667,0 -10.80361,-7.33342 -10.80361,-16.37966c0,-9.04624 4.83694,-16.37966 10.80361,-16.37966c5.96667,0 10.80361,7.33342 10.80361,16.37966z" fill="#ffffff" stroke="#000000" stroke-width="2"/><path d="M229.5173,212.27674c-1.98194,5.83155 -5.73072,9.83092 -8.37315,8.93286c-2.64242,-0.89806 -3.17784,-6.35349 -1.1959,-12.18504c1.98194,-5.83155 5.73072,-9.83092 8.37315,-8.93286c2.64242,0.89806 3.17784,6.35349 1.1959,12.18504z" fill="#ffffff" stroke="#000000" stroke-width="2"/><path d="M243.99485,211.31849c1.21531,6.03805 -0.01743,11.37927 -2.75343,11.92997c-2.736,0.55069 -5.93916,-3.89769 -7.15447,-9.93573c-1.21531,-6.03805 0.01743,-11.37928 2.75343,-11.92997c2.736,-0.55069 5.93915,3.8977 7.15447,9.93574z" fill="#ffffff" stroke="#000000" stroke-width="2"/><path d="M234.27603,191.99393c-6.15118,-0.31294 -11.02275,-2.82615 -10.88095,-5.61341c0.1418,-2.78725 5.24327,-4.79308 11.39446,-4.48014c6.15118,0.31294 11.02276,2.82616 10.88096,5.61341c-0.1418,2.78725 -5.24328,4.79308 -11.39447,4.48014z" fill="#ffffff" stroke="#000000" stroke-width="2"/><path d="M233.84208,184.7865c4.53722,4.16517 6.68537,9.20837 4.79803,11.26429c-1.88734,2.05593 -7.09548,0.34604 -11.6327,-3.81912c-4.53722,-4.16517 -6.68537,-9.20837 -4.79803,-11.2643c1.88734,-2.05593 7.09547,-0.34603 11.6327,3.81913z" fill="#ffffff" stroke="#000000" stroke-width="2"/><g><path d="M228.00474,154.1585c1.87584,-9.85385 11.38463,-16.32131 21.23848,-14.44547c9.85385,1.87584 16.32131,11.38463 14.44547,21.23848c-1.87584,9.85385 -11.38463,16.32131 -21.23848,14.44547c-9.85385,-1.87584 -16.32131,-11.38463 -14.44547,-21.23848z" fill="#ffffff" stroke="#000000" stroke-width="2"/><path d="M255.14255,160.09305c0.2582,-1.35635 1.56706,-2.24658 2.92342,-1.98838c1.35635,0.2582 2.24658,1.56706 1.98838,2.92342c-0.2582,1.35635 -1.56706,2.24658 -2.92342,1.98838c-1.35635,-0.2582 -2.24658,-1.56706 -1.98838,-2.92342z" fill="#000000" stroke="none" stroke-width="0.5"/><path d="M245.34664,164.4776c2.29577,0.7487 4.60641,0.67732 6.94045,1.75651c1.38521,0.64048 2.13186,2.53409 1.05302,3.94804c-0.50943,0.66767 -1.48835,0.86897 -2.32068,0.98086c-0.83172,0.11181 -2.00583,-1.21807 -2.88759,-1.39867c-1.8536,-0.37961 -3.53964,-0.13618 -5.27886,-0.94034c-1.03618,-0.47911 -1.81739,-1.80967 -2.87193,-2.11088c-0.98435,-0.28116 -2.25608,0.53638 -3.06998,-0.08455c-1.04641,-0.1992 -1.81538,-1.02374 -1.99362,-2.01298c-0.10994,-0.27815 -0.1282,-0.56248 -0.00624,-0.8456c0.00353,-0.0216 0.00736,-0.04321 0.01148,-0.06484c0.13405,-0.70414 0.55125,-1.28266 1.11126,-1.64009c2.59833,-2.43413 6.50879,1.49812 9.31268,2.41253z" fill="#000000" stroke="none" stroke-width="0.5"/></g></g></g></svg>