<svg version="1.1" xmlns="http://www.w3.org/2000/svg" xmlns:xlink="http://www.w3.org/1999/xlink" width="48.0299" height="86.26857" viewBox="0,0,48.0299,86.26857"><g transform="translate(-215.98505,-136.80197)"><g stroke-miterlimit="10"><path d="M226.69017,155.96436c0,-10.03081 8.13158,-18.16239 18.16239,-18.16239c10.03081,0 18.16239,8.13158 18.16239,18.16239c0,10.03081 -8.13158,18.16239 -18.16239,18.16239c-10.03081,0 -18.16239,-8.13158 -18.16239,-18.16239z" fill="#ffffff" stroke="#000000" stroke-width="2"/><path d="M254.45904,156.71924c0,-1.38071 1.11929,-2.5 2.5,-2.5c1.38071,0 2.5,1.11929 2.5,2.5c0,1.38071 -1.11929,2.5 -2.5,2.5c-1.38071,0 -2.5,-1.11929 -2.5,-2.5z" fill="#000000" stroke="none" stroke-width="0.5"/><path d="M245.65589,162.85835c2.39528,0.30617 4.65181,-0.19606 7.14649,0.42761c1.48055,0.37014 2.56814,2.09071 1.77276,3.68147c-0.37558,0.75116 -1.29959,1.13197 -2.09631,1.39754c-0.79614,0.26538 -2.19823,-0.82148 -3.09821,-0.83399c-1.89189,-0.02628 -3.50266,0.52816 -5.36158,0.06343c-1.1075,-0.27688 -2.12375,-1.43788 -3.21602,-1.53657c-1.01956,-0.09212 -2.11597,0.94882 -3.03163,0.49105c-1.0652,0 -1.9748,-0.66619 -2.33489,-1.60465c-0.16002,-0.25268 -0.23113,-0.52858 -0.16426,-0.82952c-0.00057,-0.02188 -0.00085,-0.04382 -0.00085,-0.06584c0,-0.71679 0.30166,-1.36312 0.78495,-1.81897c2.09729,-2.8771 6.67413,0.2545 9.59955,0.62843z" fill="#000000" stroke="none" stroke-width="0.5"/><path d="M243.52623,186.6539c0,9.04624 -4.83694,16.37966 -10.80361,16.37966c-5.96667,0 -10.80361,-7.33342 -10.80361,-16.37966c0,-9.04624 4.83694,-16.37966 10.80361,-16.37966c5.96667,0 10.80361,7.33342 10.80361,16.37966z" fill="#ffffff" stroke="#000000" stroke-width="2"/><path d="M227.86635,212.83405c-2.1755,5.76214 -6.0557,9.63414 -8.66667,8.64837c-2.61097,-0.98577 -2.96398,-6.45603 -0.78848,-12.21817c2.1755,-5.76214 6.0557,-9.63414 8.66667,-8.64837c2.61097,0.98577 2.96398,6.45603 0.78848,12.21817z" fill="#ffffff" stroke="#000000" stroke-width="2"/><path d="M245.81474,209.88319c1.9933,5.82767 1.46852,11.28413 -1.17215,12.18735c-2.64067,0.90322 -6.39724,-3.08884 -8.39054,-8.91651c-1.9933,-5.82767 -1.46852,-11.28414 1.17215,-12.18735c2.64067,-0.90322 6.39723,3.08885 8.39054,8.91652z" fill="#ffffff" stroke="#000000" stroke-width="2"/><path d="M235.69746,192.85857c-5.99332,1.41955 -11.37331,0.36879 -12.01654,-2.34694c-0.64323,-2.71572 3.69387,-6.06802 9.68719,-7.48757c5.99332,-1.41955 11.37332,-0.36878 12.01655,2.34694c0.64323,2.71572 -3.69388,6.06802 -9.6872,7.48757z" fill="#ffffff" stroke="#000000" stroke-width="2"/><path d="M234.67599,183.30066c5.37885,3.00049 8.6371,7.40869 7.2775,9.84598c-1.3596,2.43729 -6.82219,1.98072 -12.20104,-1.01977c-5.37885,-3.00049 -8.6371,-7.4087 -7.2775,-9.84599c1.3596,-2.43729 6.82219,-1.98071 12.20105,1.01978z" fill="#ffffff" stroke="#000000" stroke-width="2"/></g></g></svg>